<svg width="24" height="24" viewBox="0 0 24 24" fill="none" xmlns="http://www.w3.org/2000/svg">
<path d="M6.06731 17.0211L1.92306 12.8769C1.77436 12.7282 1.70097 12.5541 1.70289 12.3548C1.7048 12.1554 1.78333 11.9782 1.93846 11.8231C2.09358 11.6782 2.26921 11.6032 2.46536 11.5981C2.66151 11.5929 2.83715 11.6679 2.99229 11.8231L6.71536 15.5461L7.06156 15.2L8.11536 16.2538L7.33266 17.0211C7.1519 17.1916 6.941 17.2794 6.69999 17.2846C6.45897 17.2897 6.24808 17.2019 6.06731 17.0211ZM11.7173 17.0211L7.57309 12.8769C7.43462 12.7384 7.36379 12.5669 7.36059 12.3625C7.35737 12.158 7.4282 11.9782 7.57309 11.8231C7.7282 11.6679 7.9064 11.5904 8.10769 11.5904C8.30895 11.5904 8.48715 11.6679 8.64229 11.8231L12.35 15.5308L21.0231 6.85766C21.1718 6.70895 21.3458 6.63556 21.5452 6.63749C21.7445 6.63941 21.9218 6.71793 22.0769 6.87306C22.2218 7.02818 22.2968 7.20381 22.3019 7.39996C22.307 7.59611 22.232 7.77175 22.0769 7.92686L12.9827 17.0211C12.8019 17.2019 12.591 17.2922 12.35 17.2922C12.109 17.2922 11.8981 17.2019 11.7173 17.0211ZM12.0038 12.35L10.9346 11.2961L15.3577 6.87306C15.4962 6.7346 15.6676 6.66376 15.8721 6.66056C16.0766 6.65735 16.2564 6.72818 16.4115 6.87306C16.5666 7.02818 16.6442 7.20638 16.6442 7.40766C16.6442 7.60893 16.5666 7.78713 16.4115 7.94226L12.0038 12.35Z" fill="#7019FF"/>
</svg>
