<svg width="60" height="60" viewBox="0 0 60 60" fill="none" xmlns="http://www.w3.org/2000/svg">
<path d="M19.6876 43.7499C16.96 43.7499 14.8551 42.7147 13.3727 40.6442C11.8904 38.5737 11.1828 36.1234 11.2501 33.2932V33.0769L9.93281 31.0528C9.28218 30.04 8.50575 28.3156 7.6035 25.8797C6.70125 23.4438 6.25012 20.6506 6.25012 17.5C6.25012 13.5609 7.19643 10.2845 9.08906 7.67075C10.9817 5.05696 13.3687 3.75006 16.2501 3.75006C19.2949 3.75006 21.7227 5.15471 23.5336 7.964C25.3445 10.7733 26.25 13.9519 26.25 17.5C26.25 19.8045 25.9126 22.0056 25.2379 24.1034C24.5633 26.2011 23.9439 27.9151 23.3797 29.2452L24.1923 30.5866C24.6058 31.2821 25.0521 32.1972 25.5312 33.3318C26.0104 34.4664 26.25 35.585 26.25 36.6875C26.25 38.7099 25.6306 40.3926 24.3918 41.7355C23.1531 43.0785 21.585 43.7499 19.6876 43.7499ZM13.5818 29.7212L19.7116 28.3703C20.2853 27.0369 20.8935 25.3919 21.5361 23.4351C22.1787 21.4784 22.5001 19.5 22.5001 17.5C22.5001 14.9038 21.9151 12.5881 20.7452 10.5529C19.5754 8.51763 18.077 7.5 16.2501 7.5C14.4231 7.5 12.9247 8.51763 11.7549 10.5529C10.585 12.5881 10.0001 14.9038 10.0001 17.5C10.0001 20.0128 10.3767 22.3597 11.1299 24.5409C11.8831 26.722 12.7004 28.4487 13.5818 29.7212ZM19.6876 40C20.4953 40 21.1659 39.7003 21.6996 39.1009C22.2332 38.5016 22.5001 37.6971 22.5001 36.6875C22.5001 35.9792 22.3214 35.2099 21.964 34.3798C21.6066 33.5497 21.1811 32.7468 20.6876 31.9711L15.0001 33.2692C15.0001 35.1923 15.3847 36.7949 16.1539 38.0769C16.9231 39.359 18.101 40 19.6876 40ZM40.3126 56.2499C38.4151 56.2499 36.8471 55.5784 35.6083 54.2355C34.3695 52.8926 33.7501 51.2099 33.7501 49.1875C33.7501 48.085 33.9897 46.9664 34.4689 45.8317C34.948 44.6972 35.3944 43.7821 35.8078 43.0866L36.6204 41.7452C36.0723 40.4311 35.4569 38.7212 34.7742 36.6154C34.0915 34.5096 33.7501 32.3045 33.7501 30C33.7501 26.4519 34.6556 23.2733 36.4665 20.464C38.2774 17.6547 40.7052 16.2501 43.7501 16.2501C46.6314 16.2501 49.0184 17.557 50.9111 20.1707C52.8037 22.7845 53.75 26.0609 53.75 30C53.75 33.1506 53.3029 35.9294 52.4086 38.3364C51.5144 40.7435 50.734 42.4695 50.0673 43.5144L48.75 45.5769V45.8173C48.7917 48.5994 48.0737 51.0336 46.5961 53.1201C45.1186 55.2067 43.0241 56.2499 40.3126 56.2499V56.2499ZM46.3221 42.3654C47.3799 40.7084 48.2573 38.8878 48.9544 36.9038C49.6515 34.9199 50.0001 32.6186 50.0001 30C50.0001 27.4038 49.4151 25.0881 48.2453 23.0529C47.0754 21.0176 45.577 20 43.7501 20C41.9231 20 40.4248 21.0176 39.2549 23.0529C38.085 25.0881 37.5001 27.4038 37.5001 30C37.5001 32 37.8254 33.968 38.4761 35.9039C39.1267 37.8398 39.7309 39.4953 40.2886 40.8703L46.3221 42.3654ZM40.3126 52.5C41.867 52.5 43.0369 51.867 43.8222 50.6009C44.6074 49.3349 45.0001 47.7805 45.0001 45.9375L39.3366 44.4471C38.9552 45.1266 38.5538 45.8854 38.1323 46.7236C37.7108 47.5617 37.5001 48.383 37.5001 49.1875C37.5001 50.0369 37.7685 50.8013 38.3054 51.4808C38.8422 52.1603 39.5113 52.5 40.3126 52.5Z" fill="#7019FF"/>
</svg>
