<svg width="1440" height="729" viewBox="0 0 1440 729" fill="none" xmlns="http://www.w3.org/2000/svg">
<path d="M-22.5 -19.5H1462.5V659.501L1461.49 659.641C1460.97 659.713 1460.31 659.804 1459.52 659.914C1458.86 660.004 1458.11 660.107 1457.27 660.223C1453.55 660.733 1448.07 661.48 1441.01 662.431C1426.88 664.334 1406.42 667.052 1381.07 670.311C1330.39 676.829 1260.19 685.515 1182.14 694.182C1026.04 711.518 838.554 728.78 712.968 728.496C590.113 728.219 406.146 710.957 252.875 693.761C176.243 685.164 107.291 676.584 57.4972 670.153C32.6003 666.938 12.493 664.26 -1.39001 662.385C-8.33148 661.448 -13.7169 660.712 -17.3668 660.21C-19.1917 659.959 -20.5828 659.767 -21.5176 659.638C-21.9381 659.579 -22.2662 659.534 -22.5 659.501V-19.5Z" fill="#EEF5FE" stroke="#7019FF"/>
</svg>
