<svg width="33" height="33" viewBox="0 0 33 33" fill="none" xmlns="http://www.w3.org/2000/svg">
<rect x="0.5" y="0.5" width="32" height="32" rx="16" fill="white"/>
<path fill-rule="evenodd" clip-rule="evenodd" d="M29.3201 16.5C29.3201 23.6797 23.4998 29.5 16.3201 29.5C9.14038 29.5 3.32007 23.6797 3.32007 16.5C3.32007 9.32031 9.14038 3.5 16.3201 3.5C23.4998 3.5 29.3201 9.32031 29.3201 16.5ZM17.5658 12.511C15.3325 13.4757 8.89295 16.2153 8.89295 16.2153C7.36683 16.8327 8.26012 17.4114 8.26012 17.4114C8.26012 17.4114 9.56292 17.8745 10.6796 18.2217C11.7963 18.569 12.3919 18.1832 12.3919 18.1832C12.3919 18.1832 14.9975 16.4082 17.6403 14.5175C19.5014 13.2056 19.0548 14.286 18.6081 14.749C17.6403 15.7523 16.0397 17.3343 14.6997 18.6076C14.1041 19.1479 14.4019 19.6109 14.6625 19.8424C15.4203 20.5071 17.2051 21.716 18.0154 22.2648C18.24 22.4169 18.3897 22.5183 18.422 22.5434C18.6081 22.6978 19.6503 23.3923 20.2831 23.238C20.9159 23.0836 20.9903 22.1961 20.9903 22.1961C20.9903 22.1961 21.4742 19.0321 21.9209 16.1381C22.0036 15.5699 22.0864 15.0136 22.1635 14.4949C22.364 13.1466 22.5268 12.0522 22.5537 11.6621C22.6654 10.3502 21.3253 10.8904 21.3253 10.8904C21.3253 10.8904 18.422 12.1252 17.5658 12.511Z" fill="#34AADF"/>
</svg>
